<?xml version="1.0" encoding="UTF-8" standalone="no"?>
<svg
   xmlns:dc="http://purl.org/dc/elements/1.1/"
   xmlns:cc="http://creativecommons.org/ns#"
   xmlns:rdf="http://www.w3.org/1999/02/22-rdf-syntax-ns#"
   xmlns:svg="http://www.w3.org/2000/svg"
   xmlns="http://www.w3.org/2000/svg"
   xmlns:sodipodi="http://sodipodi.sourceforge.net/DTD/sodipodi-0.dtd"
   xmlns:inkscape="http://www.inkscape.org/namespaces/inkscape"
   width="210mm"
   height="297mm"
   viewBox="0 0 210 297"
   version="1.1"
   id="svg8"
   inkscape:version="1.0.2 (1.0.2+r75+1)"
   sodipodi:docname="cowlib-plaque-arriere.svg">
  <defs
     id="defs2" />
  <sodipodi:namedview
     id="base"
     pagecolor="#ffffff"
     bordercolor="#666666"
     borderopacity="1.0"
     inkscape:pageopacity="0.0"
     inkscape:pageshadow="2"
     inkscape:zoom="1.0822166"
     inkscape:cx="345.06482"
     inkscape:cy="59.07749"
     inkscape:document-units="mm"
     inkscape:current-layer="layer1"
     inkscape:document-rotation="0"
     showgrid="false"
     inkscape:window-width="1920"
     inkscape:window-height="1055"
     inkscape:window-x="0"
     inkscape:window-y="0"
     inkscape:window-maximized="1" />
  <metadata
     id="metadata5">
    <rdf:RDF>
      <cc:Work
         rdf:about="">
        <dc:format>image/svg+xml</dc:format>
        <dc:type
           rdf:resource="http://purl.org/dc/dcmitype/StillImage" />
        <dc:title></dc:title>
      </cc:Work>
    </rdf:RDF>
  </metadata>
  <g
     inkscape:label="Calque 1"
     inkscape:groupmode="layer"
     id="layer1">
    <g
       id="g987">
      <rect
         style="fill:none;stroke:#ff0000;stroke-width:0.264583;stroke-opacity:1"
         id="rect10"
         width="116"
         height="156"
         x="0.1322915"
         y="0.1322915" />
      <rect
         style="fill:none;stroke:#000000;stroke-width:0.264583;stroke-opacity:1"
         id="rect835"
         width="8.5"
         height="8.5"
         x="0.1322915"
         y="0.1322915" />
      <rect
         style="fill:none;stroke:#000000;stroke-width:0.264583;stroke-opacity:1"
         id="rect848"
         width="8.5"
         height="8.5"
         x="107.63229"
         y="0.1322915" />
      <rect
         style="fill:none;stroke:#000000;stroke-width:0.264583;stroke-opacity:1"
         id="rect850"
         width="8.5"
         height="8.5"
         x="0.1322915"
         y="147.63228" />
      <rect
         style="fill:none;stroke:#ff0000;stroke-width:0.264583;stroke-opacity:1"
         id="rect852"
         width="8.5"
         height="8.5"
         x="107.63229"
         y="147.63228" />
      <circle
         style="fill:none;stroke:#ff0000;stroke-width:0.264583;stroke-opacity:1"
         id="path854"
         cx="4.3822918"
         cy="4.3822913"
         r="2" />
      <circle
         style="fill:none;stroke:#ff0000;stroke-width:0.264583;stroke-opacity:1"
         id="circle856"
         cx="111.88229"
         cy="4.3822913"
         r="2" />
      <rect
         style="fill:none;stroke:#000000;stroke-width:0.264583;stroke-opacity:1"
         id="rect858"
         width="8.5"
         height="8.5"
         x="107.63229"
         y="147.63228" />
      <circle
         style="fill:none;stroke:#ff0000;stroke-width:0.264583;stroke-opacity:1"
         id="circle860"
         cx="111.88229"
         cy="151.88228"
         r="2" />
      <circle
         style="fill:none;stroke:#ff0000;stroke-width:0.264583;stroke-opacity:1"
         id="circle862"
         cx="4.3822918"
         cy="151.88228"
         r="2" />
    </g>
    <g
       id="g975">
      <path
         id="circle876"
         style="fill:none;stroke:#ff0000;stroke-width:0.2;stroke-miterlimit:4;stroke-dasharray:none;stroke-opacity:1"
         d="m 19.429953,30.603235 a 1.9480766,1.9480766 0 0 0 -1.948201,1.948201 1.9480766,1.9480766 0 0 0 0.001,0.05064 h -0.0021 v 5.01985 a 3.9478042,3.9478042 0 0 0 -1.998326,3.432865 3.9478042,3.9478042 0 0 0 3.947562,3.947562 3.9478042,3.9478042 0 0 0 3.947562,-3.947562 3.9478042,3.9478042 0 0 0 -1.998327,-3.432865 v -5.01985 h -0.0021 a 1.9480766,1.9480766 0 0 0 10e-4,-0.05064 1.9480766,1.9480766 0 0 0 -1.948201,-1.948201 z" />
      <path
         id="path909"
         style="fill:none;stroke:#ff0000;stroke-width:0.2;stroke-miterlimit:4;stroke-dasharray:none;stroke-opacity:1"
         d="m 57.892708,30.603235 a 1.9480766,1.9480766 0 0 0 -1.948201,1.948201 1.9480766,1.9480766 0 0 0 10e-4,0.05064 h -0.0021 v 5.01985 a 3.9478042,3.9478042 0 0 0 -1.998326,3.432865 3.9478042,3.9478042 0 0 0 3.947562,3.947562 3.9478042,3.9478042 0 0 0 3.947562,-3.947562 3.9478042,3.9478042 0 0 0 -1.998327,-3.432865 v -5.01985 h -0.0021 a 1.9480766,1.9480766 0 0 0 10e-4,-0.05064 1.9480766,1.9480766 0 0 0 -1.948201,-1.948201 z" />
      <path
         id="path921"
         style="fill:none;stroke:#ff0000;stroke-width:0.2;stroke-miterlimit:4;stroke-dasharray:none;stroke-opacity:1"
         d="m 96.355465,30.603235 a 1.9480766,1.9480766 0 0 0 -1.948201,1.948201 1.9480766,1.9480766 0 0 0 0.001,0.05064 h -0.0021 v 5.01985 a 3.9478042,3.9478042 0 0 0 -1.998326,3.432865 3.9478042,3.9478042 0 0 0 3.947562,3.947562 3.9478042,3.9478042 0 0 0 3.94756,-3.947562 3.9478042,3.9478042 0 0 0 -1.998325,-3.432865 v -5.01985 h -0.0021 a 1.9480766,1.9480766 0 0 0 10e-4,-0.05064 1.9480766,1.9480766 0 0 0 -1.948201,-1.948201 z" />
    </g>
    <rect
       style="fill:none;stroke:#000000;stroke-width:0.157;stroke-miterlimit:4;stroke-dasharray:none;stroke-opacity:1"
       id="rect941"
       width="62.842892"
       height="93.842896"
       x="26.710846"
       y="49.51506" />
    <rect
       style="fill:none;stroke:#000000;stroke-width:0.2;stroke-miterlimit:4;stroke-dasharray:none;stroke-opacity:1"
       id="rect943"
       width="7"
       height="7"
       x="26.732292"
       y="49.536507" />
    <rect
       style="fill:none;stroke:#000000;stroke-width:0.2;stroke-miterlimit:4;stroke-dasharray:none;stroke-opacity:1"
       id="rect945"
       width="7"
       height="7"
       x="82.532295"
       y="49.536507" />
    <rect
       style="fill:none;stroke:#000000;stroke-width:0.2;stroke-miterlimit:4;stroke-dasharray:none;stroke-opacity:1"
       id="rect947"
       width="7"
       height="7"
       x="82.532295"
       y="136.33652" />
    <rect
       style="fill:none;stroke:#000000;stroke-width:0.2;stroke-miterlimit:4;stroke-dasharray:none;stroke-opacity:1"
       id="rect949"
       width="7"
       height="7"
       x="26.732292"
       y="136.33652" />
    <circle
       style="fill:none;stroke:#ff0000;stroke-width:0.2;stroke-miterlimit:4;stroke-dasharray:none;stroke-opacity:1"
       id="path951"
       cx="30.232292"
       cy="53.036507"
       r="1.5" />
    <circle
       style="fill:none;stroke:#ff0000;stroke-width:0.2;stroke-miterlimit:4;stroke-dasharray:none;stroke-opacity:1"
       id="circle953"
       cx="86.032295"
       cy="53.036507"
       r="1.5" />
    <circle
       style="fill:none;stroke:#ff0000;stroke-width:0.2;stroke-miterlimit:4;stroke-dasharray:none;stroke-opacity:1"
       id="circle955"
       cx="86.032295"
       cy="139.83652"
       r="1.5" />
    <circle
       style="fill:none;stroke:#ff0000;stroke-width:0.2;stroke-miterlimit:4;stroke-dasharray:none;stroke-opacity:1"
       id="circle957"
       cx="30.232292"
       cy="139.83652"
       r="1.5" />
    <text
       xml:space="preserve"
       style="font-style:normal;font-weight:normal;font-size:4.23333px;line-height:1.25;font-family:sans-serif;letter-spacing:0px;word-spacing:0px;white-space:pre;inline-size:81.6795;fill:#000000;fill-opacity:1;stroke:none;stroke-width:0.264583"
       x="137.47557"
       y="21.299761"
       id="text991"
       transform="translate(-11.112501,-10.054167)"><tspan
         x="137.47557"
         y="21.299761"><tspan
           style="font-style:normal;font-variant:normal;font-weight:bold;font-stretch:normal;font-size:4.23333px;font-family:Ubuntu;-inkscape-font-specification:'Ubuntu Bold';stroke-width:0.264583">Plaque arrière badgeuse Cowlib'
</tspan></tspan><tspan
         x="137.47557"
         y="26.793464"><tspan
           style="font-style:normal;font-variant:normal;font-weight:normal;font-stretch:normal;font-size:4.23333px;font-family:Ubuntu;-inkscape-font-specification:Ubuntu;stroke-width:0.264583">version 1 - 19 mai 2021
</tspan></tspan><tspan
         x="137.47557"
         y="32.085125"><tspan
           style="font-style:normal;font-variant:normal;font-weight:normal;font-stretch:normal;font-size:2.82222px;font-family:Ubuntu;-inkscape-font-specification:Ubuntu">avec ga</tspan><tspan
           style="font-style:normal;font-variant:normal;font-weight:normal;font-stretch:normal;font-size:2.82222px;font-family:Ubuntu;-inkscape-font-specification:Ubuntu;stroke-width:0.264583">barit de fixation par l'extérieur pour la plaque d'essai </tspan></tspan><tspan
         x="137.47557"
         y="37.376787"><tspan
           style="font-style:normal;font-variant:normal;font-weight:normal;font-stretch:normal;font-size:2.82222px;font-family:Ubuntu;-inkscape-font-specification:Ubuntu;stroke-width:0.264583">PTH-protoboard-30 (Sparkfun)
</tspan></tspan><tspan
         x="137.47557"
         y="42.668448"><tspan
           style="font-style:normal;font-variant:normal;font-weight:normal;font-stretch:normal;font-size:2.82222px;font-family:Ubuntu;-inkscape-font-specification:Ubuntu;stroke-width:0.264583">
</tspan></tspan><tspan
         x="137.47557"
         y="47.960112"><tspan
           style="font-style:normal;font-variant:normal;font-weight:normal;font-stretch:normal;font-size:2.82222px;font-family:Ubuntu;-inkscape-font-specification:Ubuntu;stroke-width:0.264583">Fixation principale M4
</tspan></tspan><tspan
         x="137.47557"
         y="53.251776"><tspan
           style="font-style:normal;font-variant:normal;font-weight:normal;font-stretch:normal;font-size:2.82222px;font-family:Ubuntu;-inkscape-font-specification:Ubuntu;stroke-width:0.264583">Fixation plaque M3
</tspan></tspan><tspan
         x="137.47557"
         y="58.54344"><tspan
           style="font-style:normal;font-variant:normal;font-weight:normal;font-stretch:normal;font-size:2.82222px;font-family:Ubuntu;-inkscape-font-specification:Ubuntu;stroke-width:0.264583">
</tspan></tspan><tspan
         x="137.47557"
         y="63.835104"><tspan
           style="font-style:normal;font-variant:normal;font-weight:normal;font-stretch:normal;font-size:2.82222px;font-family:Ubuntu;-inkscape-font-specification:Ubuntu;stroke-width:0.264583">Utiliser des vis à tête fraisée</tspan></tspan></text>
    <text
       xml:space="preserve"
       style="font-style:normal;font-weight:normal;font-size:3.52778px;line-height:1.25;font-family:sans-serif;letter-spacing:0px;word-spacing:0px;baseline-shift:baseline;fill:#666666;fill-opacity:1;stroke:none;stroke-width:0.264583;"
       x="58.076309"
       y="82.83213"
       id="text999"><tspan
         sodipodi:role="line"
         id="tspan997"
         x="58.076309"
         y="82.83213"
         style="text-align:center;text-anchor:middle;fill:#666666;">PTH-protoboard-30</tspan><tspan
         sodipodi:role="line"
         x="58.076309"
         y="87.241852"
         id="tspan1001"
         style="text-align:center;text-anchor:middle;fill:#666666;">(Sparkfun)</tspan></text>
  </g>
</svg>
